<svg version="1.1" id="Layer_1" xmlns="http://www.w3.org/2000/svg" xmlns:xlink="http://www.w3.org/1999/xlink" x="0px" y="0px"
	 width="100%" viewBox="0 0 505 512" enable-background="new 0 0 505 512" xml:space="preserve">
<path fill="#FFFFFE" opacity="1.000000" stroke="none" 
	d="
M264.000000,513.000000 
	C176.000015,513.000000 88.500038,513.000000 1.000047,513.000000 
	C1.000031,342.333405 1.000031,171.666794 1.000016,1.000139 
	C169.333237,1.000092 337.666473,1.000092 505.999756,1.000046 
	C505.999847,171.666519 505.999847,342.333038 505.999939,512.999756 
	C425.500000,513.000000 345.000000,513.000000 264.000000,513.000000 
M169.519608,483.989532 
	C214.484161,501.586975 260.667694,505.582672 307.944305,495.964386 
	C437.551300,469.596130 522.898132,341.030365 496.673096,211.843491 
	C470.291138,81.883652 348.046875,-2.281728 217.395416,19.851519 
	C94.169067,40.726906 0.636577,155.800598 18.765793,289.662689 
	C31.285990,382.109039 83.184082,446.553497 169.519608,483.989532 
z"/>
<path fill="#F26721" opacity="1.000000" stroke="none" 
	d="
M169.158691,483.852722 
	C83.184082,446.553497 31.285990,382.109039 18.765793,289.662689 
	C0.636577,155.800598 94.169067,40.726906 217.395416,19.851519 
	C348.046875,-2.281728 470.291138,81.883652 496.673096,211.843491 
	C522.898132,341.030365 437.551300,469.596130 307.944305,495.964386 
	C260.667694,505.582672 214.484161,501.586975 169.158691,483.852722 
M418.571228,272.005402 
	C420.155304,266.969086 422.123260,262.012726 423.194122,256.869568 
	C423.961914,253.182053 423.610168,249.244797 423.618256,245.418671 
	C423.650909,229.924164 423.686707,214.429214 423.597137,198.935150 
	C423.565857,193.523926 420.731720,190.328461 416.151215,189.985870 
	C411.582672,189.644180 407.335541,192.836960 406.396576,197.553650 
	C406.043549,199.326904 406.132629,201.199768 406.123505,203.027756 
	C406.094025,208.939270 406.112518,214.851028 406.112518,221.399887 
	C403.903595,220.405930 402.435303,219.713882 400.942871,219.078568 
	C386.564270,212.957779 370.849457,216.271652 359.673248,227.771118 
	C349.212494,238.534470 346.178619,254.988266 352.716675,268.526062 
	C358.694550,280.903961 368.480804,288.637970 382.459839,290.033508 
	C397.847656,291.569702 409.641388,285.347626 418.571228,272.005402 
M311.126892,216.205765 
	C303.554291,217.387695 295.981659,218.569641 288.146820,219.792511 
	C288.146820,213.777298 288.181824,206.825134 288.136383,199.873489 
	C288.095673,193.646194 284.746155,189.889923 279.424927,189.976151 
	C274.327850,190.058746 270.908478,193.778137 270.890747,199.622681 
	C270.835144,217.950439 270.657898,236.281967 270.947693,254.605408 
	C271.216522,271.605225 283.703156,286.078705 300.519806,289.634094 
	C316.661743,293.046844 333.759155,284.836884 341.065704,269.862579 
	C353.489624,244.400650 335.285767,218.584900 311.126892,216.205765 
M162.856232,221.045959 
	C160.440857,217.366974 156.905655,214.866577 152.790466,216.628906 
	C150.204956,217.736145 146.964737,221.087051 146.845657,223.567139 
	C146.087601,239.354294 145.420090,255.248886 149.492386,270.762054 
	C151.626678,278.892517 156.260529,285.083954 164.607361,288.056793 
	C185.354050,295.446014 202.893250,285.673340 205.654755,263.853180 
	C207.253723,251.218979 206.579666,238.283173 206.690948,225.481049 
	C206.739410,219.905716 203.198181,216.261261 198.371246,216.154938 
	C193.470596,216.046997 189.435287,219.983841 189.256851,225.454117 
	C189.132309,229.272202 189.817032,233.128036 189.562088,236.928223 
	C188.963547,245.850616 188.479996,254.825714 187.032394,263.628571 
	C186.219849,268.569641 182.679260,272.310272 177.073166,272.733215 
	C172.767960,273.058075 168.136917,269.198608 166.130554,263.864136 
	C165.606339,262.470367 165.093826,261.000000 164.985214,259.534454 
	C164.482178,252.746429 164.055618,245.950928 163.733475,239.151871 
	C163.459396,233.367401 163.365097,227.574402 162.856232,221.045959 
M108.473648,206.942017 
	C98.470764,215.000565 93.709290,225.406296 93.917053,238.291962 
	C94.126305,251.269501 93.961624,264.253052 93.962372,277.233978 
	C93.962906,286.500427 96.444176,290.293701 102.452797,290.220337 
	C108.467140,290.146881 111.255684,286.049835 111.257774,277.275970 
	C111.259781,268.852356 111.258209,260.428711 111.258209,251.618256 
	C116.932953,251.618256 121.904526,251.655090 126.875328,251.609131 
	C133.418259,251.548630 137.649429,247.840927 137.523209,242.358719 
	C137.405045,237.225632 133.581696,234.185669 127.139488,234.152405 
	C122.091682,234.126343 117.043633,234.147171 111.926491,234.147171 
	C112.982071,224.646896 119.866089,217.769333 128.655380,216.922958 
	C131.793549,216.620758 134.993729,216.917404 138.120728,216.554276 
	C143.009216,215.986542 146.345184,212.043167 146.258194,207.376678 
	C146.176559,202.997314 143.099304,199.551163 138.374954,199.261887 
	C127.879829,198.619263 117.722816,199.670929 108.473648,206.942017 
M229.980392,280.161316 
	C229.981094,271.998688 229.968307,263.836029 229.985535,255.673447 
	C230.014771,241.819748 236.320129,235.164627 250.050827,234.158646 
	C253.156326,233.931107 256.401581,233.473816 259.243988,232.301483 
	C263.345001,230.609970 266.216827,227.297791 265.514252,222.568085 
	C264.830261,217.963531 261.181458,216.110977 256.873108,215.607590 
	C238.706284,213.484985 213.504196,225.462921 212.577393,252.108749 
	C212.247498,261.592987 212.407181,271.098083 212.506088,280.591949 
	C212.569061,286.637756 215.803238,290.131958 221.015137,290.221832 
	C226.301987,290.313049 229.281998,287.269562 229.980392,280.161316 
M354.850769,314.710968 
	C341.609589,316.446838 329.330231,313.852417 318.221527,306.355835 
	C314.956970,304.152771 311.891724,303.112823 309.008667,306.629486 
	C306.647034,309.510223 307.719208,312.732391 311.825165,315.798981 
	C332.895721,331.535828 363.920685,330.997437 384.415833,314.554474 
	C387.420166,312.144135 389.545502,309.357147 386.748505,305.666138 
	C384.016998,302.061554 381.066925,303.524445 377.557831,305.262207 
	C370.481171,308.766632 363.021423,311.497559 354.850769,314.710968 
M335.067902,210.309784 
	C335.652618,211.940796 336.237366,213.571793 336.822083,215.202820 
	C338.213623,214.324036 340.143555,213.773758 340.911804,212.514679 
	C347.281891,202.074493 356.331116,196.827637 368.656433,197.571915 
	C371.159363,197.723068 374.381714,198.288223 374.179565,194.746078 
	C374.104156,193.424789 370.840210,191.448029 368.856079,191.207733 
	C354.949554,189.523621 342.596527,196.494980 335.067902,210.309784 
M349.097015,218.585587 
	C354.307556,212.869431 359.786438,207.777084 368.410553,208.228394 
	C369.241241,208.271851 371.004211,205.862885 370.863525,204.784180 
	C370.722778,203.704910 368.842255,202.247406 367.541290,202.024582 
	C360.122162,200.754044 349.833191,206.077972 345.982819,212.851425 
	C344.275482,215.854935 344.790344,217.901199 349.097015,218.585587 
z"/>
<path fill="#FFFCFA" opacity="1.000000" stroke="none" 
	d="
M418.370697,272.313416 
	C409.641388,285.347626 397.847656,291.569702 382.459839,290.033508 
	C368.480804,288.637970 358.694550,280.903961 352.716675,268.526062 
	C346.178619,254.988266 349.212494,238.534470 359.673248,227.771118 
	C370.849457,216.271652 386.564270,212.957779 400.942871,219.078568 
	C402.435303,219.713882 403.903595,220.405930 406.112518,221.399887 
	C406.112518,214.851028 406.094025,208.939270 406.123505,203.027756 
	C406.132629,201.199768 406.043549,199.326904 406.396576,197.553650 
	C407.335541,192.836960 411.582672,189.644180 416.151215,189.985870 
	C420.731720,190.328461 423.565857,193.523926 423.597137,198.935150 
	C423.686707,214.429214 423.650909,229.924164 423.618256,245.418671 
	C423.610168,249.244797 423.961914,253.182053 423.194122,256.869568 
	C422.123260,262.012726 420.155304,266.969086 418.370697,272.313416 
M392.229523,272.087280 
	C402.285278,268.134857 407.153748,260.454865 405.969482,250.412491 
	C405.018463,242.348145 398.203613,235.192795 390.102203,233.945114 
	C381.530579,232.625031 374.550323,235.478790 369.909149,242.815704 
	C365.509430,249.770950 365.599579,257.157990 370.126892,264.005310 
	C375.166382,271.627289 382.535919,274.166809 392.229523,272.087280 
z"/>
<path fill="#FFFDFC" opacity="1.000000" stroke="none" 
	d="
M311.567566,216.243866 
	C335.285767,218.584900 353.489624,244.400650 341.065704,269.862579 
	C333.759155,284.836884 316.661743,293.046844 300.519806,289.634094 
	C283.703156,286.078705 271.216522,271.605225 270.947693,254.605408 
	C270.657898,236.281967 270.835144,217.950439 270.890747,199.622681 
	C270.908478,193.778137 274.327850,190.058746 279.424927,189.976151 
	C284.746155,189.889923 288.095673,193.646194 288.136383,199.873489 
	C288.181824,206.825134 288.146820,213.777298 288.146820,219.792511 
	C295.981659,218.569641 303.554291,217.387695 311.567566,216.243866 
M327.201447,256.622589 
	C328.538696,248.006058 325.523071,241.149658 318.242371,236.569931 
	C311.310059,232.209351 304.004425,232.434875 297.092255,236.833725 
	C289.610535,241.595062 286.486206,250.615707 289.080536,259.049896 
	C291.667572,267.460236 299.371246,273.026489 308.240417,272.893799 
	C317.398407,272.756714 324.370605,267.038635 327.201447,256.622589 
z"/>
<path fill="#FFFCFA" opacity="1.000000" stroke="none" 
	d="
M163.023743,221.415573 
	C163.365097,227.574402 163.459396,233.367401 163.733475,239.151871 
	C164.055618,245.950928 164.482178,252.746429 164.985214,259.534454 
	C165.093826,261.000000 165.606339,262.470367 166.130554,263.864136 
	C168.136917,269.198608 172.767960,273.058075 177.073166,272.733215 
	C182.679260,272.310272 186.219849,268.569641 187.032394,263.628571 
	C188.479996,254.825714 188.963547,245.850616 189.562088,236.928223 
	C189.817032,233.128036 189.132309,229.272202 189.256851,225.454117 
	C189.435287,219.983841 193.470596,216.046997 198.371246,216.154938 
	C203.198181,216.261261 206.739410,219.905716 206.690948,225.481049 
	C206.579666,238.283173 207.253723,251.218979 205.654755,263.853180 
	C202.893250,285.673340 185.354050,295.446014 164.607361,288.056793 
	C156.260529,285.083954 151.626678,278.892517 149.492386,270.762054 
	C145.420090,255.248886 146.087601,239.354294 146.845657,223.567139 
	C146.964737,221.087051 150.204956,217.736145 152.790466,216.628906 
	C156.905655,214.866577 160.440857,217.366974 163.023743,221.415573 
z"/>
<path fill="#FFFCFB" opacity="1.000000" stroke="none" 
	d="
M108.755104,206.723251 
	C117.722816,199.670929 127.879829,198.619263 138.374954,199.261887 
	C143.099304,199.551163 146.176559,202.997314 146.258194,207.376678 
	C146.345184,212.043167 143.009216,215.986542 138.120728,216.554276 
	C134.993729,216.917404 131.793549,216.620758 128.655380,216.922958 
	C119.866089,217.769333 112.982071,224.646896 111.926491,234.147171 
	C117.043633,234.147171 122.091682,234.126343 127.139488,234.152405 
	C133.581696,234.185669 137.405045,237.225632 137.523209,242.358719 
	C137.649429,247.840927 133.418259,251.548630 126.875328,251.609131 
	C121.904526,251.655090 116.932953,251.618256 111.258209,251.618256 
	C111.258209,260.428711 111.259781,268.852356 111.257774,277.275970 
	C111.255684,286.049835 108.467140,290.146881 102.452797,290.220337 
	C96.444176,290.293701 93.962906,286.500427 93.962372,277.233978 
	C93.961624,264.253052 94.126305,251.269501 93.917053,238.291962 
	C93.709290,225.406296 98.470764,215.000565 108.755104,206.723251 
z"/>
<path fill="#FFFCFB" opacity="1.000000" stroke="none" 
	d="
M229.978699,280.615204 
	C229.281998,287.269562 226.301987,290.313049 221.015137,290.221832 
	C215.803238,290.131958 212.569061,286.637756 212.506088,280.591949 
	C212.407181,271.098083 212.247498,261.592987 212.577393,252.108749 
	C213.504196,225.462921 238.706284,213.484985 256.873108,215.607590 
	C261.181458,216.110977 264.830261,217.963531 265.514252,222.568085 
	C266.216827,227.297791 263.345001,230.609970 259.243988,232.301483 
	C256.401581,233.473816 253.156326,233.931107 250.050827,234.158646 
	C236.320129,235.164627 230.014771,241.819748 229.985535,255.673447 
	C229.968307,263.836029 229.981094,271.998688 229.978699,280.615204 
z"/>
<path fill="#FFFBF8" opacity="1.000000" stroke="none" 
	d="
M355.285248,314.629272 
	C363.021423,311.497559 370.481171,308.766632 377.557831,305.262207 
	C381.066925,303.524445 384.016998,302.061554 386.748505,305.666138 
	C389.545502,309.357147 387.420166,312.144135 384.415833,314.554474 
	C363.920685,330.997437 332.895721,331.535828 311.825165,315.798981 
	C307.719208,312.732391 306.647034,309.510223 309.008667,306.629486 
	C311.891724,303.112823 314.956970,304.152771 318.221527,306.355835 
	C329.330231,313.852417 341.609589,316.446838 355.285248,314.629272 
z"/>
<path fill="#FEF8F4" opacity="1.000000" stroke="none" 
	d="
M335.218048,209.992798 
	C342.596527,196.494980 354.949554,189.523621 368.856079,191.207733 
	C370.840210,191.448029 374.104156,193.424789 374.179565,194.746078 
	C374.381714,198.288223 371.159363,197.723068 368.656433,197.571915 
	C356.331116,196.827637 347.281891,202.074493 340.911804,212.514679 
	C340.143555,213.773758 338.213623,214.324036 336.822083,215.202820 
	C336.237366,213.571793 335.652618,211.940796 335.218048,209.992798 
z"/>
<path fill="#FEF8F4" opacity="1.000000" stroke="none" 
	d="
M348.739990,218.647980 
	C344.790344,217.901199 344.275482,215.854935 345.982819,212.851425 
	C349.833191,206.077972 360.122162,200.754044 367.541290,202.024582 
	C368.842255,202.247406 370.722778,203.704910 370.863525,204.784180 
	C371.004211,205.862885 369.241241,208.271851 368.410553,208.228394 
	C359.786438,207.777084 354.307556,212.869431 348.739990,218.647980 
z"/>
<path fill="#F36923" opacity="1.000000" stroke="none" 
	d="
M391.837585,272.193237 
	C382.535919,274.166809 375.166382,271.627289 370.126892,264.005310 
	C365.599579,257.157990 365.509430,249.770950 369.909149,242.815704 
	C374.550323,235.478790 381.530579,232.625031 390.102203,233.945114 
	C398.203613,235.192795 405.018463,242.348145 405.969482,250.412491 
	C407.153748,260.454865 402.285278,268.134857 391.837585,272.193237 
z"/>
<path fill="#F36923" opacity="1.000000" stroke="none" 
	d="
M327.155579,257.020569 
	C324.370605,267.038635 317.398407,272.756714 308.240417,272.893799 
	C299.371246,273.026489 291.667572,267.460236 289.080536,259.049896 
	C286.486206,250.615707 289.610535,241.595062 297.092255,236.833725 
	C304.004425,232.434875 311.310059,232.209351 318.242371,236.569931 
	C325.523071,241.149658 328.538696,248.006058 327.155579,257.020569 
z"/>
</svg>