<svg version="1.1" id="Layer_1" xmlns="http://www.w3.org/2000/svg" xmlns:xlink="http://www.w3.org/1999/xlink" x="0px" y="0px"
	 width="100%" viewBox="0 0 259 262" enable-background="new 0 0 259 262" xml:space="preserve">
<path fill="#FFFEFD" opacity="1.000000" stroke="none" 
	d="
M143.000000,263.000000 
	C95.333336,263.000000 48.166668,263.000000 1.000000,263.000000 
	C1.000000,175.666672 1.000000,88.333336 1.000000,1.000000 
	C87.333336,1.000000 173.666672,1.000000 260.000000,1.000000 
	C260.000000,88.333336 260.000000,175.666672 260.000000,263.000000 
	C221.166672,263.000000 182.333328,263.000000 143.000000,263.000000 
M85.962372,249.597122 
	C135.004486,265.821381 179.696091,257.919403 217.016785,222.003601 
	C253.902328,186.506592 264.221252,142.470123 249.198929,93.587914 
	C231.618484,36.381592 171.867523,-0.478707 113.045586,8.306535 
	C50.805096,17.602346 5.050336,68.862091 4.230076,130.214188 
	C3.523446,183.067245 34.987015,229.311554 85.962372,249.597122 
z"/>
<path fill="#F36822" opacity="1.000000" stroke="none" 
	d="
M85.604431,249.443542 
	C34.987015,229.311554 3.523446,183.067245 4.230076,130.214188 
	C5.050336,68.862091 50.805096,17.602346 113.045586,8.306535 
	C171.867523,-0.478707 231.618484,36.381592 249.198929,93.587914 
	C264.221252,142.470123 253.902328,186.506592 217.016785,222.003601 
	C179.696091,257.919403 135.004486,265.821381 85.604431,249.443542 
M195.966492,88.745987 
	C196.186996,84.141006 195.705872,79.846794 190.132065,78.725739 
	C185.247299,77.743256 181.099731,81.625084 180.955811,87.366776 
	C180.803101,93.458717 180.921478,99.557457 180.921478,106.232368 
	C179.132965,105.474716 177.962738,104.985451 176.797546,104.484428 
	C159.792923,97.172630 140.498596,105.264427 134.020050,122.426109 
	C127.331810,140.143250 136.629379,160.271332 154.077591,165.848145 
	C174.662933,172.427658 195.515091,157.235474 195.910065,135.107849 
	C196.180222,119.973343 195.964844,104.830162 195.966492,88.745987 
M63.935650,106.500046 
	C63.976177,116.826180 63.615326,127.173058 64.147591,137.473785 
	C65.033775,154.623947 80.140015,167.888885 97.423851,167.281128 
	C114.589165,166.677536 128.094650,152.019012 127.979095,134.117203 
	C127.866196,116.627083 114.014114,101.858299 97.072884,101.987030 
	C91.119629,102.032272 85.180527,103.938980 79.018578,105.034180 
	C79.018578,99.452637 79.100800,93.309494 78.993973,87.169640 
	C78.899178,81.721024 75.944916,78.570099 71.312347,78.679527 
	C66.913300,78.783440 64.057114,81.894287 63.964622,87.011925 
	C63.853287,93.172806 63.936577,99.337212 63.935650,106.500046 
M157.572098,179.746811 
	C140.255264,192.080017 122.576164,192.856491 104.585114,181.296722 
	C101.660240,179.417389 98.933693,178.852631 96.794632,182.011703 
	C94.640305,185.193344 96.399414,187.532043 98.999008,189.632385 
	C116.626038,203.874100 145.210236,203.494873 162.236221,188.445206 
	C163.803482,187.059860 164.712296,183.737747 164.245789,181.699783 
	C163.975052,180.516998 160.349304,180.102188 157.572098,179.746811 
M150.215683,85.375854 
	C151.300995,84.425644 152.386307,83.475441 153.471619,82.525230 
	C152.274673,81.589737 151.201706,80.109657 149.861252,79.804520 
	C138.674072,77.257828 124.403397,84.825401 119.951149,95.709297 
	C119.402321,97.050949 120.173225,98.932442 120.332565,100.563782 
	C121.847298,99.728813 123.989273,99.279022 124.776367,97.997246 
	C130.483978,88.702431 138.647903,84.492432 150.215683,85.375854 
M140.594589,89.875359 
	C136.614365,92.972343 132.524170,95.946129 128.770813,99.297226 
	C128.198425,99.808281 129.185349,102.065857 129.451065,103.515633 
	C130.756958,103.178658 132.672012,103.274193 133.268768,102.433708 
	C136.840607,97.403061 141.500717,94.929344 147.681168,94.844780 
	C148.666290,94.831291 149.627411,93.063454 150.599625,92.106674 
	C149.504623,91.094414 148.531204,89.458717 147.286163,89.215942 
	C145.415497,88.851158 143.354507,89.462296 140.594589,89.875359 
z"/>
<path fill="#FFFCFA" opacity="1.000000" stroke="none" 
	d="
M195.966492,89.218430 
	C195.964844,104.830162 196.180222,119.973343 195.910065,135.107849 
	C195.515091,157.235474 174.662933,172.427658 154.077591,165.848145 
	C136.629379,160.271332 127.331810,140.143250 134.020050,122.426109 
	C140.498596,105.264427 159.792923,97.172630 176.797546,104.484428 
	C177.962738,104.985451 179.132965,105.474716 180.921478,106.232368 
	C180.921478,99.557457 180.803101,93.458717 180.955811,87.366776 
	C181.099731,81.625084 185.247299,77.743256 190.132065,78.725739 
	C195.705872,79.846794 196.186996,84.141006 195.966492,89.218430 
M148.098495,127.995934 
	C145.437485,136.972244 147.797379,144.549072 154.692245,149.166168 
	C160.698303,153.188095 168.648895,152.840927 174.259369,148.311768 
	C179.984818,143.689758 182.277710,136.519424 180.093124,129.476700 
	C177.979645,122.663177 173.325073,118.446678 166.288315,117.299690 
	C158.852524,116.087646 152.890396,119.570053 148.098495,127.995934 
z"/>
<path fill="#FFFCFB" opacity="1.000000" stroke="none" 
	d="
M63.935631,106.000069 
	C63.936577,99.337212 63.853287,93.172806 63.964622,87.011925 
	C64.057114,81.894287 66.913300,78.783440 71.312347,78.679527 
	C75.944916,78.570099 78.899178,81.721024 78.993973,87.169640 
	C79.100800,93.309494 79.018578,99.452637 79.018578,105.034180 
	C85.180527,103.938980 91.119629,102.032272 97.072884,101.987030 
	C114.014114,101.858299 127.866196,116.627083 127.979095,134.117203 
	C128.094650,152.019012 114.589165,166.677536 97.423851,167.281128 
	C80.140015,167.888885 65.033775,154.623947 64.147591,137.473785 
	C63.615326,127.173058 63.976177,116.826180 63.935631,106.000069 
M110.397949,125.313034 
	C109.800926,124.512337 109.266579,123.654503 108.597008,122.919937 
	C102.975845,116.752945 94.627235,115.318886 87.718971,119.302727 
	C80.359940,123.546516 77.171593,132.301178 79.999596,140.498871 
	C82.591080,148.010941 90.082565,152.738541 97.989235,151.851425 
	C109.937050,150.510910 116.081108,138.092148 110.397949,125.313034 
z"/>
<path fill="#FFFAF6" opacity="1.000000" stroke="none" 
	d="
M157.902695,179.544312 
	C160.349304,180.102188 163.975052,180.516998 164.245789,181.699783 
	C164.712296,183.737747 163.803482,187.059860 162.236221,188.445206 
	C145.210236,203.494873 116.626038,203.874100 98.999008,189.632385 
	C96.399414,187.532043 94.640305,185.193344 96.794632,182.011703 
	C98.933693,178.852631 101.660240,179.417389 104.585114,181.296722 
	C122.576164,192.856491 140.255264,192.080017 157.902695,179.544312 
z"/>
<path fill="#FEF8F3" opacity="1.000000" stroke="none" 
	d="
M149.841675,85.327797 
	C138.647903,84.492432 130.483978,88.702431 124.776367,97.997246 
	C123.989273,99.279022 121.847298,99.728813 120.332565,100.563782 
	C120.173225,98.932442 119.402321,97.050949 119.951149,95.709297 
	C124.403397,84.825401 138.674072,77.257828 149.861252,79.804520 
	C151.201706,80.109657 152.274673,81.589737 153.471619,82.525238 
	C152.386307,83.475441 151.300995,84.425644 149.841675,85.327797 
z"/>
<path fill="#FEF6EF" opacity="1.000000" stroke="none" 
	d="
M140.984528,89.766922 
	C143.354507,89.462296 145.415497,88.851158 147.286163,89.215942 
	C148.531204,89.458717 149.504623,91.094414 150.599625,92.106674 
	C149.627411,93.063454 148.666290,94.831291 147.681168,94.844780 
	C141.500717,94.929344 136.840607,97.403061 133.268768,102.433708 
	C132.672012,103.274193 130.756958,103.178658 129.451065,103.515625 
	C129.185349,102.065857 128.198425,99.808281 128.770813,99.297226 
	C132.524170,95.946129 136.614365,92.972343 140.984528,89.766922 
z"/>
<path fill="#F36A24" opacity="1.000000" stroke="none" 
	d="
M148.248688,127.632622 
	C152.890396,119.570053 158.852524,116.087646 166.288315,117.299690 
	C173.325073,118.446678 177.979645,122.663177 180.093124,129.476700 
	C182.277710,136.519424 179.984818,143.689758 174.259369,148.311768 
	C168.648895,152.840927 160.698303,153.188095 154.692245,149.166168 
	C147.797379,144.549072 145.437485,136.972244 148.248688,127.632622 
z"/>
<path fill="#F36A24" opacity="1.000000" stroke="none" 
	d="
M110.600677,125.631821 
	C116.081108,138.092148 109.937050,150.510910 97.989235,151.851425 
	C90.082565,152.738541 82.591080,148.010941 79.999596,140.498871 
	C77.171593,132.301178 80.359940,123.546516 87.718971,119.302727 
	C94.627235,115.318886 102.975845,116.752945 108.597008,122.919937 
	C109.266579,123.654503 109.800926,124.512337 110.600677,125.631821 
z"/>
</svg>